# xmcd
#
# Track frame offsets:
#	182
#	15042
#	30185
#	46955
#	63497
#	83112
#	100987
#	118065
#	134652
#	150165
#	166305
#	186177
#	202652
#	218697
#	234832
#	252712
#	269847
#	286282
#
# Disc length: 4036 seconds
#
# Revision: 0
# Processed by: cddbd v1.4PL0 Copyright (c) Steve Scherf et al.
# Submitted via: dBpowerAMP V4.0
#
DISCID=ed0fc212
DTITLE=divers - hits attitude n°3
DYEAR=1900
DGENRE=
TTITLE0=jenifer ! au soleil
TTITLE1=david halliday ! repenses y si tu veux
TTITLE2=nickelback ! how you remind me
TTITLE3=cunnie william ! comme back to me
TTITLE4=rohff et asia ! 5 9 1 
TTITLE5=nuttea et ub 40 ! cover up
TTITLE6=ashanti ! foolish
TTITLE7=marc lavoine ! j aurais voulu
TTITLE8=j pascal ! rue de la liberté
TTITLE9=le 6-9 ! faut passer ton bac
TTITLE10=mille et une nuits ! one thousand et one nights
TTITLE11=chico ! chicos in love remix
TTITLE12=dj vallium ! lets alla chant
TTITLE13=mad house ! hioliday
TTITLE14=kylie minogue ! love at first sight
TTITLE15=sophie ellie bextor ! murder on the dance floor
TTITLE16=kate ryan ! desanchantée
TTITLE17=david guetta ! love don t let me go
EXTD=
EXTT0=
EXTT1=
EXTT2=
EXTT3=
EXTT4=
EXTT5=
EXTT6=
EXTT7=
EXTT8=
EXTT9=
EXTT10=
EXTT11=
EXTT12=
EXTT13=
EXTT14=
EXTT15=
EXTT16=
EXTT17=
PLAYORDER=
